<svg width="80" height="80" viewBox="0 0 80 80" fill="none" xmlns="http://www.w3.org/2000/svg">
<circle cx="40" cy="40" r="40" fill="#D93B3B"/>
<path fill-rule="evenodd" clip-rule="evenodd" d="M40.5 18C52.9264 18 63 28.0736 63 40.5C63 52.9264 52.9264 63 40.5 63C28.0736 63 18 52.9264 18 40.5C18 28.0736 28.0736 18 40.5 18ZM41.0123 37.0222L49.1422 28.8922L52.5172 32.2672L44.3873 40.3972L52.62 48.6299L49.245 52.0049L41.0123 43.7722L32.2672 52.5172L28.8922 49.1422L37.6373 40.3972L28.995 31.7549L32.37 28.3799L41.0123 37.0222Z" fill="white"/>
<path fill-rule="evenodd" clip-rule="evenodd" d="M79.3015 47.4817C76.2568 63.5736 63.5735 76.2568 47.4817 79.3015L24.5901 56.4099C33.3769 65.1967 47.6231 65.1967 56.4099 56.4099C65.1967 47.6231 65.1967 33.3769 56.4099 24.5901L79.3015 47.4817ZM56.4099 24.5901C56.2917 24.4719 56.1726 24.3554 56.0525 24.2404L56.0564 24.2365L56.4099 24.5901ZM24.5901 56.4099L24.2365 56.0563L24.2404 56.0525C24.3554 56.1726 24.4719 56.2917 24.5901 56.4099Z" fill="#B11F1F"/>
</svg>
